# xmcd CD Database Entry
#
# Track frame offsets:
# 150
# 11362
# 26396
# 40939
# 56354
# 72490
# 85035
# 106939
# 114013
# 130173
# 140863
# 158878
# 179952
# 205722
# 213220
#
# Disc length: 2987 seconds
#
# Revision: 1
# Processed by: cddbd v1.4PL0 Copyright (c) Steve Scherf et al.
# Submitted via: tcd 2.0b
#
DISCID=c80ba90f
DTITLE=Dowd, Johnny - Wrong Side of Memphis
DYEAR=1900
DGENRE=
TTITLE0=Murder
TTITLE1=Papa, Oh, Papa
TTITLE2=Ft. Worth, Texas
TTITLE3=One Way
TTITLE4=Just Like a Dog
TTITLE5=Average Guy
TTITLE6=Ballad of Frank and Jesse James
TTITLE7=Idle Conversation
TTITLE8=Wages of Sin
TTITLE9=John Deere Yeller
TTITLE10=Thanksgiving Day
TTITLE11=Heavenly Feast
TTITLE12=First There Was
TTITLE13=I Don't Exist
TTITLE14=Welcome Jesusg
EXTD=
EXTT0=
EXTT1=
EXTT2=
EXTT3=
EXTT4=
EXTT5=
EXTT6=
EXTT7=
EXTT8=
EXTT9=
EXTT10=
EXTT11=
EXTT12=
EXTT13=
EXTT14=
PLAYORDER=
